<?xml version="1.0" standalone="no"?>
<!DOCTYPE svg PUBLIC "-//W3C//DTD SVG 20010904//EN"
 "http://www.w3.org/TR/2001/REC-SVG-20010904/DTD/svg10.dtd">
<svg version="1.0" xmlns="http://www.w3.org/2000/svg"
 width="512.000000pt" height="512.000000pt" viewBox="0 0 512.000000 512.000000"
 preserveAspectRatio="xMidYMid meet">
<metadata>
Created by potrace 1.14, written by Peter Selinger 2001-2017
</metadata>
<g transform="translate(0.000000,512.000000) scale(0.100000,-0.100000)"
fill="#000000" stroke="none">
<path d="M2215 4799 c-25 -23 -68 -83 -97 -133 -29 -50 -76 -128 -105 -173
-30 -45 -61 -99 -69 -120 -22 -51 -124 -228 -191 -330 -30 -45 -63 -104 -75
-130 -25 -58 -143 -263 -204 -355 -24 -36 -53 -87 -64 -112 -26 -57 -149 -271
-205 -356 -24 -36 -51 -83 -61 -105 -24 -52 -172 -309 -234 -405 -27 -41 -49
-81 -49 -88 -1 -14 -139 -257 -181 -317 -38 -55 -90 -144 -90 -155 0 -10 -143
-260 -180 -315 -40 -59 -90 -144 -90 -155 0 -9 -122 -221 -219 -379 l-51 -84
0 -249 c0 -248 0 -249 25 -288 14 -22 25 -43 25 -47 0 -5 16 -30 35 -57 19
-27 35 -55 35 -61 0 -6 22 -32 48 -58 l48 -47 2295 0 2295 0 46 48 c26 26 72
91 102 144 l56 97 0 270 0 269 -25 30 c-14 17 -32 47 -41 69 -9 21 -24 47 -34
58 -11 11 -26 36 -34 56 -8 19 -31 59 -50 88 -20 29 -36 59 -36 66 0 8 -11 27
-25 43 -14 17 -32 47 -41 67 -8 20 -28 55 -44 77 -17 23 -30 45 -30 51 0 5
-18 36 -40 69 -22 33 -40 65 -40 72 0 6 -16 33 -35 60 -19 27 -35 54 -35 60 0
6 -16 33 -35 60 -19 27 -35 54 -35 60 0 6 -18 38 -40 71 -22 33 -40 64 -40 70
0 5 -16 32 -35 59 -19 27 -35 54 -35 59 0 6 -16 34 -35 63 -19 29 -35 56 -35
61 0 4 -18 35 -40 68 -22 33 -40 64 -40 70 0 5 -16 32 -35 59 -19 27 -35 54
-35 59 0 6 -16 34 -35 63 -19 29 -35 59 -35 67 0 7 -8 21 -18 31 -11 9 -32 42
-48 74 -16 31 -41 76 -56 98 -16 23 -28 49 -28 57 0 9 -5 19 -10 22 -14 9 -60
82 -60 95 0 6 -18 37 -40 69 -22 32 -40 65 -40 74 0 9 -5 19 -10 22 -16 10
-60 83 -60 99 0 7 -8 20 -17 27 -9 8 -29 41 -45 74 -16 33 -42 78 -58 100 -16
22 -29 47 -30 56 0 9 -9 24 -19 33 -11 10 -29 39 -40 66 -12 27 -26 52 -32 56
-6 4 -24 35 -40 69 -15 34 -34 67 -42 73 -8 7 -24 35 -36 62 -12 27 -26 52
-32 56 -6 4 -24 35 -40 70 -16 34 -34 66 -40 70 -6 3 -22 30 -35 59 -12 29
-28 56 -34 60 -7 4 -22 28 -34 54 -12 25 -36 68 -54 95 -18 28 -32 53 -32 57
0 4 -16 30 -35 59 -19 29 -35 57 -35 64 0 7 -15 26 -33 44 l-33 32 -307 0
-307 0 -45 -41z m482 -295 c32 -31 63 -73 77 -107 14 -30 30 -58 37 -62 6 -4
20 -28 31 -53 12 -25 34 -64 49 -85 16 -22 29 -44 29 -50 0 -5 18 -36 40 -69
22 -33 40 -66 40 -73 0 -8 11 -27 25 -43 14 -17 32 -47 41 -67 8 -20 28 -55
44 -77 17 -23 30 -45 30 -51 0 -5 18 -36 40 -69 22 -33 40 -66 40 -73 0 -8 11
-27 25 -43 14 -17 32 -47 41 -67 8 -20 28 -55 44 -77 17 -23 30 -45 30 -51 0
-5 18 -36 40 -69 22 -33 40 -65 40 -72 0 -6 16 -33 35 -60 19 -27 35 -54 35
-60 0 -6 16 -33 35 -60 19 -27 35 -54 35 -59 0 -5 18 -36 40 -69 22 -33 40
-65 40 -72 0 -6 16 -33 35 -60 19 -27 35 -54 35 -60 0 -6 16 -33 35 -60 19
-27 35 -54 35 -59 0 -5 18 -36 40 -69 22 -33 40 -65 40 -72 0 -6 16 -33 35
-60 19 -27 35 -54 35 -60 0 -6 16 -33 35 -60 19 -27 35 -54 35 -59 0 -5 18
-36 40 -69 22 -33 40 -65 40 -72 0 -6 16 -33 35 -60 19 -27 35 -54 35 -60 0
-6 16 -33 35 -60 19 -27 35 -54 35 -60 0 -6 18 -38 40 -71 22 -33 40 -64 40
-70 0 -5 16 -32 35 -59 19 -27 35 -54 35 -60 0 -6 16 -33 35 -60 19 -27 35
-54 35 -60 0 -6 18 -38 40 -71 22 -33 40 -64 40 -70 0 -5 16 -32 35 -59 19
-27 35 -54 35 -60 0 -6 16 -33 35 -60 19 -27 35 -56 35 -64 0 -8 16 -36 35
-62 19 -26 35 -54 35 -62 0 -7 18 -37 40 -67 52 -70 52 -95 -6 -194 -39 -67
-48 -77 -73 -77 -27 0 -54 -21 -62 -48 -3 -10 -406 -14 -2109 -18 l-2105 -5
-19 38 c-10 21 -22 45 -27 53 -26 43 -59 117 -59 135 0 11 -4 26 -9 34 -6 9
-4 23 6 38 8 13 13 23 10 23 -13 0 187 365 239 435 30 40 84 134 84 145 0 11
159 284 203 349 20 28 48 77 63 109 35 72 153 277 209 362 23 36 58 97 77 135
41 81 144 258 210 360 25 39 53 87 61 107 20 47 125 228 193 333 29 44 60 98
70 120 26 56 160 289 206 357 21 31 54 89 74 129 45 90 169 304 200 344 12 17
43 70 68 119 26 49 69 128 96 175 l50 86 102 0 101 0 54 -51z"/>
<path d="M2565 3680 c-3 -5 -19 -10 -34 -10 -34 0 -76 -43 -121 -125 -18 -33
-48 -80 -66 -105 -17 -25 -58 -94 -89 -155 -31 -60 -61 -114 -65 -118 -9 -10
-235 -11 -249 -2 -12 7 -38 -31 -85 -125 -20 -41 -48 -94 -62 -117 l-25 -43
408 -2 c224 -1 444 -3 488 -3 l80 -1 25 -51 c14 -27 30 -56 37 -64 6 -8 34
-59 62 -113 l51 -99 -23 -31 c-13 -17 -26 -36 -28 -42 -2 -5 -22 -40 -44 -77
l-39 -67 -81 -1 c-44 0 -284 -2 -534 -2 l-454 -2 -144 -230 c-78 -126 -143
-233 -143 -238 0 -12 -145 -261 -191 -328 -38 -56 -109 -190 -109 -207 0 -5
-13 -28 -30 -50 -39 -54 -38 -80 3 -120 l33 -32 224 0 c124 0 255 -3 292 -6
l66 -7 69 -121 69 -121 172 -3 c134 -2 172 0 172 10 0 7 -21 51 -47 98 -25 47
-55 103 -67 125 -11 22 -33 58 -48 79 -15 21 -28 44 -28 50 0 6 -18 38 -40 71
-22 33 -40 64 -40 70 0 5 -16 32 -35 59 -19 27 -35 57 -35 67 0 10 -5 21 -10
24 -16 10 -60 83 -60 99 0 8 -11 28 -25 44 -14 17 -25 34 -25 40 0 16 70 163
92 195 12 17 31 49 42 71 12 23 27 40 35 38 7 -1 68 -5 134 -7 118 -4 121 -5
143 -32 13 -15 35 -53 51 -83 15 -30 40 -73 55 -94 15 -21 28 -43 28 -49 0 -5
18 -36 40 -69 22 -33 40 -64 40 -68 0 -4 16 -31 35 -60 19 -29 35 -58 35 -65
0 -7 7 -19 16 -26 9 -7 28 -38 43 -69 15 -30 41 -75 59 -99 18 -24 32 -51 32
-59 0 -20 46 -79 72 -93 16 -9 194 -12 652 -11 l631 1 32 38 c40 47 41 64 3
132 -17 30 -30 58 -30 62 0 5 -20 43 -45 85 -25 41 -45 79 -45 83 0 5 -9 20
-20 34 -11 13 -31 47 -45 73 -14 27 -31 57 -38 67 -9 13 -9 21 0 35 7 9 30 45
50 79 21 35 43 63 48 63 6 0 23 21 38 46 l27 45 -31 67 c-24 51 -119 208 -146
241 -2 3 -26 -17 -54 -45 -50 -49 -139 -178 -164 -237 -17 -41 -151 -268 -220
-372 -29 -44 -65 -105 -79 -136 l-26 -56 -85 -7 c-47 -4 -124 -4 -171 0 -85 7
-86 7 -109 45 -13 20 -29 40 -35 44 -17 10 -56 77 -64 109 -6 23 1 42 35 100
23 39 52 85 65 103 13 17 43 69 67 115 50 96 161 291 188 330 11 14 51 81 89
149 50 87 68 129 64 143 -4 11 -47 94 -95 184 -49 90 -89 166 -89 168 0 2 -18
33 -40 69 -22 36 -40 68 -40 72 0 3 -16 30 -35 59 -19 29 -35 59 -35 67 0 8
-8 21 -17 28 -9 8 -29 42 -44 76 -16 34 -34 65 -40 68 -6 4 -23 35 -38 69 -16
33 -35 67 -44 75 -10 7 -17 22 -17 32 0 28 -19 58 -75 117 -47 50 -85 66 -100
42z"/>
</g>
</svg>
