<svg xmlns="http://www.w3.org/2000/svg" width="682.7" height="682.7" version="1.0" viewBox="0 0 512 512"><path d="M229 40 5 429l12 23 13 21h453l12-21 12-23-2-6A38736 38736 0 0 1 282 39a241 241 0 0 0-53 1zm47 7-49 80-49 81c-3 5-3 5 53 6h51l10 18 10 19-73 3c-66 2-71 2-73 4a6805 6805 0 0 0-80 129c0 3 7 3 57 3h46l9 17 8 17-180 4 108-186L234 51l3-5h20l19 1zm109 188 110 189 3 5-10 17-12 18-220 2H37l-10-18-10-18a3647 3647 0 0 1 190 4c5-2 3-5-22-49l-24-43c-1-1 0-5 9-19l10-17 40 64 35 59c2 1 154 6 158 4l2-3a1370 1370 0 0 1-50-89l18-31 45 75 46 75c1 2 5 7-47-88l-41-75h-7l-26 43-24 42h-39l1-2a12984 12984 0 0 1 66-122c1-2-72-137-75-139-4-2-6 0-31 44l-25 42-17 1-18-1c0-1 85-157 86-156l108 185zm-67-41 37 62-20-1-20-1-2-4c-9-13-50-87-50-87l17-30 38 61zm-52-6 9 15c-1 0-36 3-37 2l9-16 10-16 9 15zm-34 72 67 2h3l-9 14-8 14H180l-11-16-11-16 8 18c8 16 9 19 8 20l-49 85-19 1-18-1 34-61 35-62c2-1 4-1 75 1zm122 2a24477 24477 0 0 1-71 112l-3 5-9-15c-8-12-9-15-8-16l51-87c1-2 3-2 14-2l20-1h8l-2 4zm-104 84 25 43-9 19-9 19-34-62-34-62 18-1h17l26 44zm29-43-11 18-10 19-23-37 22-1 22 1zm-115 64 9 15h-19l-19-1 19-30 10 16zm204-2 9 16-18 1-18-1 18-30 9 14zm25 42 9 17-144 4 22-36 1-2h103l9 17z"/></svg>