<?xml version="1.0" standalone="no"?>
<!DOCTYPE svg PUBLIC "-//W3C//DTD SVG 20010904//EN"
 "http://www.w3.org/TR/2001/REC-SVG-20010904/DTD/svg10.dtd">
<svg version="1.0" xmlns="http://www.w3.org/2000/svg"
 width="2100.000000pt" height="1500.000000pt" viewBox="0 0 2100.000000 1500.000000"
 preserveAspectRatio="xMidYMid meet">

<g transform="translate(0.000000,1500.000000) scale(0.100000,-0.100000)"
fill="#000000" stroke="none">
<path d="M11295 9988 c-233 -26 -485 -98 -657 -186 -120 -62 -184 -117 -220
-190 l-23 -47 0 -2075 0 -2075 22 -40 c26 -48 94 -116 143 -141 34 -18 107
-19 1990 -22 1747 -2 1966 -1 2058 13 616 96 1105 563 1239 1186 25 119 25
419 0 539 -63 295 -193 537 -401 746 -156 156 -297 251 -488 328 -256 103
-584 133 -848 77 -52 -11 -95 -19 -97 -17 -2 1 -19 60 -38 130 -109 399 -310
748 -599 1045 -397 406 -876 650 -1424 725 -125 18 -517 20 -657 4z"/>
<path d="M9774 9333 c-12 -2 -34 -17 -50 -34 l-28 -29 -27 -378 c-62 -860 -79
-1271 -79 -1872 0 -470 9 -733 35 -1070 19 -228 51 -542 65 -619 17 -95 85
-140 163 -108 57 24 66 48 92 248 66 510 89 920 89 1559 0 622 -17 986 -84
1854 -33 413 -33 416 -95 442 -35 14 -42 15 -81 7z"/>
<path d="M8246 8938 c-40 -40 -38 -29 -71 -428 -89 -1084 -98 -1887 -30 -2655
21 -235 63 -575 75 -603 13 -29 68 -62 105 -62 41 0 89 31 103 66 21 55 76
574 104 984 16 240 16 1175 0 1455 -25 425 -85 1165 -98 1207 -11 36 -63 68
-111 68 -37 0 -50 -5 -77 -32z"/>
<path d="M8984 8827 c-34 -31 -36 -37 -49 -137 -8 -58 -21 -181 -29 -275 -90
-979 -85 -1937 15 -2920 22 -211 30 -239 79 -269 54 -31 142 -9 169 42 20 38
72 526 103 972 20 292 17 1371 -5 1670 -32 431 -79 856 -98 892 -16 30 -70 58
-112 58 -28 0 -46 -8 -73 -33z"/>
<path d="M7518 8614 c-44 -23 -55 -58 -77 -239 -63 -513 -85 -974 -78 -1610 5
-495 17 -725 57 -1115 38 -367 39 -371 76 -407 26 -27 40 -33 74 -33 52 0 95
25 114 65 24 52 79 563 108 1010 15 244 15 1043 0 1290 -28 438 -83 949 -108
996 -27 54 -108 75 -166 43z"/>
<path d="M6023 7930 c-17 -10 -37 -28 -43 -39 -14 -27 -55 -277 -75 -456 -26
-246 -35 -413 -35 -690 0 -366 19 -653 76 -1135 26 -226 33 -250 85 -278 51
-27 150 3 168 51 11 28 66 464 86 672 58 624 42 1147 -51 1665 -15 80 -33 157
-40 172 -29 56 -112 74 -171 38z"/>
<path d="M6758 7800 c-34 -26 -43 -52 -72 -220 -62 -351 -81 -614 -73 -1015 3
-159 13 -375 22 -480 27 -312 83 -793 96 -817 20 -40 51 -58 102 -58 40 0 53
5 77 29 36 35 33 23 70 326 57 470 71 655 77 997 8 434 -15 717 -82 1047 -29
143 -36 163 -71 190 -36 28 -111 29 -146 1z"/>
<path d="M5305 7533 c-32 -8 -74 -54 -85 -92 -81 -286 -111 -723 -74 -1083 23
-230 81 -558 103 -588 10 -14 35 -31 57 -39 34 -12 44 -11 76 2 20 8 44 27 53
41 22 34 88 362 116 575 25 191 29 489 10 636 -30 231 -96 475 -138 516 -28
28 -80 42 -118 32z"/>
</g>
</svg>
