<?xml version="1.0" standalone="no"?>
<!DOCTYPE svg PUBLIC "-//W3C//DTD SVG 20010904//EN"
 "http://www.w3.org/TR/2001/REC-SVG-20010904/DTD/svg10.dtd">
<svg version="1.0" xmlns="http://www.w3.org/2000/svg"
 width="738.000000pt" height="708.000000pt" viewBox="0 0 738.000000 708.000000"
 preserveAspectRatio="xMidYMid meet">

<g transform="translate(0.000000,708.000000) scale(0.100000,-0.100000)"
fill="#000000" stroke="none">
<path d="M3455 7024 c-22 -2 -89 -9 -150 -14 -446 -44 -949 -202 -1335 -421
-301 -170 -517 -335 -766 -583 -284 -283 -478 -549 -649 -886 -279 -552 -405
-1144 -374 -1759 44 -870 402 -1674 1019 -2291 571 -571 1302 -920 2106 -1005
180 -19 538 -19 719 0 578 61 1122 259 1595 579 258 175 577 467 764 701 811
1014 999 2380 491 3569 -327 766 -941 1407 -1690 1767 -359 172 -719 277
-1115 325 -119 14 -530 27 -615 18z m45 -1854 c975 -50 1839 -270 2481 -630
118 -67 169 -112 207 -185 23 -43 27 -62 27 -140 0 -84 -2 -95 -34 -153 -36
-66 -75 -103 -151 -143 -37 -20 -60 -24 -130 -24 -72 0 -93 4 -135 26 -28 14
-120 62 -205 106 -659 339 -1573 520 -2535 500 -519 -11 -958 -72 -1345 -187
-19 -5 -66 -10 -105 -10 -169 0 -303 128 -313 300 -5 92 20 166 77 232 58 65
121 94 316 143 541 138 1209 198 1845 165z m-146 -1200 c662 -37 1252 -174
1803 -420 189 -84 442 -223 490 -270 112 -108 110 -288 -4 -391 -58 -52 -117
-72 -200 -67 -62 3 -78 9 -173 65 -498 290 -1108 471 -1805 534 -191 17 -627
15 -825 -5 -268 -27 -533 -76 -758 -141 -100 -29 -130 -31 -199 -10 -189 56
-250 302 -111 444 43 44 84 63 213 100 471 132 1038 190 1569 161z m254 -1155
c473 -51 891 -168 1274 -357 322 -158 386 -206 409 -309 28 -125 -81 -259
-212 -259 -39 0 -85 19 -169 68 -287 172 -694 320 -1060 386 -259 47 -413 60
-730 60 -389 -1 -650 -28 -1060 -111 -208 -42 -267 -42 -329 1 -51 36 -91 112
-91 176 0 62 40 140 88 173 93 64 694 164 1142 191 135 8 601 -4 738 -19z"/>
</g>
</svg>
