<?xml version="1.0" standalone="no"?>
<!DOCTYPE svg PUBLIC "-//W3C//DTD SVG 20010904//EN"
 "http://www.w3.org/TR/2001/REC-SVG-20010904/DTD/svg10.dtd">
<svg version="1.0" xmlns="http://www.w3.org/2000/svg"
 width="500.000000pt" height="500.000000pt" viewBox="0 0 500.000000 500.000000"
 preserveAspectRatio="xMidYMid meet">

<g transform="translate(0.000000,500.000000) scale(0.100000,-0.100000)"
fill="#000000" stroke="none">
<path d="M3629 2847 c-59 -17 -132 -60 -159 -94 l-21 -26 128 -131 c70 -72
131 -132 134 -134 8 -4 259 257 259 270 0 18 -64 71 -117 95 -63 29 -161 38
-224 20z m197 -113 c67 -38 65 -48 -28 -134 l-83 -77 -79 70 c-43 39 -80 77
-83 84 -10 26 45 67 112 84 46 12 115 0 161 -27z"/>
<path d="M266 2563 c-145 -254 -157 -278 -145 -300 7 -12 15 -23 19 -23 3 0
67 106 141 236 74 130 138 237 143 236 5 0 55 -79 110 -176 97 -171 101 -176
132 -176 l32 0 -134 237 c-74 131 -136 239 -138 240 -1 2 -73 -122 -160 -274z"/>
<path d="M464 2813 c8 -15 71 -127 140 -248 l126 -220 -208 -3 c-180 -2 -209
-4 -219 -19 -7 -9 -13 -22 -13 -27 0 -8 85 -11 265 -11 170 0 265 4 264 10 0
6 -69 129 -152 275 -147 256 -154 265 -185 268 l-33 3 15 -28z"/>
<path d="M1646 2563 c-144 -253 -156 -278 -145 -300 7 -13 15 -23 19 -23 3 0
66 106 139 235 73 129 137 237 141 240 5 3 55 -76 111 -175 96 -168 105 -180
132 -180 23 0 28 3 23 17 -6 14 -254 454 -261 461 -1 1 -73 -122 -159 -275z"/>
<path d="M1844 2813 c8 -15 71 -127 140 -248 l126 -220 -208 -3 c-180 -2 -209
-4 -219 -19 -7 -9 -13 -22 -13 -27 0 -8 85 -11 265 -11 170 0 265 4 264 10 0
6 -69 129 -152 275 -147 256 -154 265 -185 268 l-33 3 15 -28z"/>
<path d="M2262 2826 c2 -8 83 -74 181 -146 163 -119 178 -128 175 -103 -2 21
-23 41 -95 92 -51 36 -92 69 -92 74 -1 4 80 7 179 7 l180 0 0 45 0 45 -266 0
c-226 0 -265 -2 -262 -14z"/>
<path d="M2880 2703 l-1 -138 183 -177 183 -177 83 -1 82 0 0 45 0 45 -98 0
-98 0 -112 106 -112 106 0 164 0 164 -55 0 -55 0 0 -137z"/>
<path d="M4060 2833 c0 -4 55 -146 123 -315 l122 -308 60 0 60 0 29 80 c16 45
30 80 31 78 2 -2 17 -38 35 -80 24 -59 37 -78 51 -78 10 0 19 3 19 8 0 4 -56
144 -124 312 l-123 305 -142 3 c-77 1 -141 -1 -141 -5z m318 -193 l44 -105
-27 -84 c-15 -45 -31 -79 -35 -75 -9 11 -150 353 -150 366 0 5 28 8 62 6 l63
-3 43 -105z"/>
<path d="M4488 2525 l127 -316 29 3 c28 3 30 8 137 313 60 170 109 311 109
312 0 2 -26 3 -58 3 l-58 0 -78 -228 c-42 -125 -80 -233 -85 -240 -5 -8 -19
17 -41 72 l-32 85 52 148 c29 81 54 152 57 156 3 4 -23 7 -58 5 l-62 -3 -23
-69 c-13 -38 -25 -71 -28 -73 -2 -2 -16 30 -31 72 -25 69 -30 75 -56 75 l-28
0 127 -315z"/>
<path d="M880 2520 l0 -310 285 0 285 0 0 25 0 25 -245 0 -245 0 0 285 0 285
-40 0 -40 0 0 -310z"/>
<path d="M980 2555 l0 -275 235 0 235 0 0 30 0 30 -197 0 -198 0 3 245 3 245
-41 0 -40 0 0 -275z"/>
<path d="M2260 2769 c1 -19 23 -40 96 -94 l95 -70 -95 -3 -96 -3 0 -194 0
-195 55 0 55 0 0 145 0 145 125 0 c101 0 125 3 125 14 0 8 -66 62 -147 122
-82 59 -163 118 -180 132 l-33 24 0 -23z"/>
<path d="M3418 2665 c-34 -75 -32 -209 3 -286 34 -71 87 -125 158 -157 79 -37
193 -37 271 0 70 32 126 88 158 158 36 77 38 211 3 285 l-23 50 -137 -143
-138 -144 -136 144 -136 143 -23 -50z m399 -189 l103 109 0 -70 c0 -80 -21
-135 -66 -177 -38 -36 -74 -48 -139 -48 -115 0 -182 59 -205 183 -6 28 -8 65
-4 80 6 27 8 26 107 -79 l102 -107 102 109z"/>
<path d="M1672 2456 c-72 -128 -132 -236 -132 -239 0 -4 141 -7 313 -7 l314 0
11 25 c7 14 12 28 12 30 0 3 -125 6 -279 7 l-279 3 72 125 c151 263 137 232
118 262 l-18 27 -132 -233z"/>
<path d="M383 2614 c-92 -159 -223 -392 -223 -398 0 -3 141 -6 313 -6 l314 0
11 25 c7 14 12 28 12 30 0 3 -125 6 -278 7 l-278 3 71 125 c39 69 85 150 103
181 32 56 32 57 14 80 l-19 23 -40 -70z"/>
<path d="M2880 2371 l0 -161 167 0 168 0 -100 101 c-55 55 -130 128 -167 161
l-68 60 0 -161z m155 -31 l39 -40 -42 0 -42 0 0 40 c0 22 1 40 3 40 2 0 21
-18 42 -40z"/>
</g>
</svg>
