<svg xmlns="http://www.w3.org/2000/svg" width="5333.3" height="5333.3" version="1.0" viewBox="0 0 4000 4000"><path d="M2953 1714c-20 2-26 2-37 5a249 249 0 0 0-155 99 2808 2808 0 0 0 96 100l33 34a17993 17993 0 0 0 73 77l8 8 8-8 143-149 33-35 25-26 2-3a240 240 0 0 0-90-75 260 260 0 0 0-140-27zm49 76c41 7 73 25 99 57l5 7-19 18-115 113-103-101-31-31a149 149 0 0 1 32-33c25-19 50-28 89-31 8-1 33 0 43 1zM358 1728l4 8 44 77 22 39 18 32 20 35 37 65a5054 5054 0 0 0 45 78l22 39 9 16 5 9H250l-2 4c-7 10-24 41-24 42l220 1 219-1-3-6-39-69-21-37-20-35-61-106-30-53-18-32-18-32-19-33-16-27-8-14-26-1-26 1z"/><path d="M319 1762a104054 104054 0 0 1-149 261l-17 28a27734 27734 0 0 0-64 113c-3 5-4 8-2 10l4 7 16 27 5 8 4-5a194633 194633 0 0 1 223-391l4 4 11 20 10 18 29 50 51 89 27 48 19 34 17 29h26l26-1-18-32-138-242-46-82a1402 1402 0 0 1-18-28l-20 35zM1430 1748a945 945 0 0 1-31 54l-29 52-31 54-38 67-43 75-50 88c-19 33-19 33-17 35a1036 1036 0 0 1 25 43l27-47 31-53 29-53 30-52 10-17 15-26 16-29 14-25 55-94a17089 17089 0 0 0 116 201l38 67 9 15 5 8 26 1 26-1-108-190-38-68a11616 11616 0 0 0-52-90l-12-22-10-14-13 21z"/><path d="m1461 1727 10 18 15 28a13955 13955 0 0 0 106 184l25 45 39 68 32 56h-167l-168 1-9 16a1462 1462 0 0 1-16 29l220 1c200 0 219 0 219-2l-2-4-10-18a2839 2839 0 0 0-64-112l-20-34a46961 46961 0 0 0-153-268l-4-8h-53zM1807 1738v10l31 23 53 39 49 35 48 35 18 13a6895 6895 0 0 0 93 69l1-20v-20l-45-33-54-39-31-22-24-18-7-5c-2-1 14-1 146-1h148l1-39v-38h-427v11zM2300 1728v219l5 5 43 42 26 24 26 25 37 36a2356 2356 0 0 1 40 38l27 26 25 25 66 63 3 3h130v-77h-159l-9-8a3955 3955 0 0 0-98-93 4260 4260 0 0 1-44-42l-19-17-9-9v-261h-45l-45 1zM3243 1728v2l5 11a391 391 0 0 0 8 21 6496 6496 0 0 1 45 113l21 51a5023 5023 0 0 0 72 181 461 461 0 0 1 11 29 899 899 0 0 1 28 68c7 19 8 20 11 25l2 5h47c41 0 47-1 48-2l4-10 12-34 5-15a202 202 0 0 1 8-21l2-8 13-35 2-8 2 3 17 44 25 63 9 23h19l18-1-3-9-10-24a1328 1328 0 0 0-30-76l-7-16-11-28-25-61a685 685 0 0 0-16-39 3320 3320 0 0 0-46-114l-18-45-5-13-6-14-26-64-1-3h-115l-115 1zm233 96a1133 1133 0 0 0 13 34l21 50 20 52c3 5 6 14 6 16l-3 10-33 95-7 23-2 7-2-4-23-57-6-14a461 461 0 0 1-15-36l-9-22-6-14-23-58-6-15-3-6a746 746 0 0 1-12-30l-16-41-4-8c-1-2 2-2 50-2h52l8 20zM3488 1727l4 10 6 16 9 21a1118 1118 0 0 1 17 42l7 17 2 6 3 8 9 21 8 21 17 41 4 12 9 20 8 21a1490 1490 0 0 0 22 54l6 14 10 25 8 21 10 24 13 31a304 304 0 0 1 11 28 1101 1101 0 0 1 20 50l2 4h21l22-1 14-39a958 958 0 0 1 23-65 5593 5593 0 0 0 59-167l5-14 16-46 5-14 6-15 7-22a1396 1396 0 0 0 16-43l8-24 7-21a828 828 0 0 1 12-34v-2h-48l-47 1-4 11a3780 3780 0 0 1-24 68l-24 71a3977 3977 0 0 0-49 143l-19 55-7 21-7 20-4-12-6-14-17-44-4-10-9-23a872 872 0 0 0-11-30c-3-6-3-7-1-11a7861 7861 0 0 0 33-94l8-23 4-11 4-10 7-21 5-14a5281 5281 0 0 1 25-72l-49-1h-48l-1 3a3651 3651 0 0 1-42 116l-8-23-12-28-8-20-7-19-10-27c-1-2-3-2-24-2h-22zM703 1982l1 249 229 1h229v-44H767v-456h-64v250z"/><path d="M782 1953v220h380v-42H845v-399h-63v221zM1807 1785l1 19 59 43 45 33 26 19 21 16 9 7h-161v156l1 155 43 1 46-1 1-118v-116h101l101-1v-18l-25-19-33-24-63-45-66-50-43-31-26-19-36-26-1 19zM3169 1850a4451 4451 0 0 1-66 68l-59 62-56 57-17 17c-1 1-16-15-58-59l-34-35a21298 21298 0 0 1-125-130c-2 0-11 16-19 33a288 288 0 0 0-21 149c3 29 9 56 20 81 25 61 74 110 134 133l14 6a313 313 0 0 0 123 13c73-9 132-43 174-99 28-36 46-83 51-133v-65a334 334 0 0 0-24-90c-5-12-15-29-16-29s-11 9-21 21zm-356 91a2350 2350 0 0 0 51 53l107 110 3-1 17-19a4982 4982 0 0 0 114-117l30-31 1 3c2 7 3 42 2 59-4 73-36 129-89 156-14 7-33 13-51 15-11 2-42 2-54 0-42-6-75-25-100-57a233 233 0 0 1-36-176l5 5zM336 1855l-8 13-6 11-20 36-27 47a18243 18243 0 0 0-133 234l-15 25-6 11 253 1h253l13-23 12-23-226-1H201l8-15 35-61a20438 20438 0 0 1 123-217c0-2-25-45-26-45l-5 7zM1440 1854l-15 26-88 155-30 53-24 42a3927 3927 0 0 1-58 102l253 1h253l12-22 13-24-226-1h-226l25-44 32-55 56-99a3504 3504 0 0 0 54-95 539 539 0 0 0-26-45l-5 6zM2300 2099l1 134a4909 4909 0 0 0 276 0l-4-5a2635 2635 0 0 1-106-102l-52-51a22303 22303 0 0 0-115-109v133zm132 34 24 23c1 1-4 1-32 1h-34v-64l10 9 32 31z"/></svg>